<?xml version="1.0" encoding="UTF-8" standalone="no"?>
<!DOCTYPE svg PUBLIC "-//W3C//DTD SVG 1.1//EN"
 "http://www.w3.org/Graphics/SVG/1.1/DTD/svg11.dtd">
<!-- Generated by graphviz version 2.36.0 (20140111.2315)
 -->
<!-- Title: G Pages: 1 -->
<svg width="1016pt" height="1001pt"
 viewBox="0.00 0.00 1016.00 1001.00" xmlns="http://www.w3.org/2000/svg" xmlns:xlink="http://www.w3.org/1999/xlink">
<g id="graph0" class="graph" transform="scale(1 1) rotate(0) translate(4 997)">
<title>G</title>
<polygon fill="white" stroke="none" points="-4,4 -4,-997 1012,-997 1012,4 -4,4"/>
<g id="clust1" class="cluster"><title>cluster_Global</title>
<path fill="none" stroke="gray" d="M181,-206C181,-206 988,-206 988,-206 994,-206 1000,-212 1000,-218 1000,-218 1000,-973 1000,-973 1000,-979 994,-985 988,-985 988,-985 181,-985 181,-985 175,-985 169,-979 169,-973 169,-973 169,-218 169,-218 169,-212 175,-206 181,-206"/>
<text text-anchor="middle" x="584.5" y="-972.2" font-family="Times,serif" font-size="11.00" fill="gray">Global</text>
</g>
<g id="clust2" class="cluster"><title>cluster_\OpenTok</title>
<path fill="none" stroke="gray" d="M189,-214C189,-214 980,-214 980,-214 986,-214 992,-220 992,-226 992,-226 992,-946 992,-946 992,-952 986,-958 980,-958 980,-958 189,-958 189,-958 183,-958 177,-952 177,-946 177,-946 177,-226 177,-226 177,-220 183,-214 189,-214"/>
<text text-anchor="middle" x="584.5" y="-945.2" font-family="Times,serif" font-size="11.00" fill="gray">OpenTok</text>
</g>
<g id="clust3" class="cluster"><title>cluster_\OpenTok\Exception</title>
<path fill="none" stroke="gray" d="M197,-644C197,-644 972,-644 972,-644 978,-644 984,-650 984,-656 984,-656 984,-919 984,-919 984,-925 978,-931 972,-931 972,-931 197,-931 197,-931 191,-931 185,-925 185,-919 185,-919 185,-656 185,-656 185,-650 191,-644 197,-644"/>
<text text-anchor="middle" x="584.5" y="-918.2" font-family="Times,serif" font-size="11.00" fill="gray">Exception</text>
</g>
<!-- \\OpenTok\\Exception\\UnexpectedValueException -->
<g id="node1" class="node"><title>\\OpenTok\\Exception\\UnexpectedValueException</title>
<polygon fill="none" stroke="black" points="694.171,-904 555.829,-904 555.829,-868 694.171,-868 694.171,-904"/>
<text text-anchor="middle" x="625" y="-882.7" font-family="Times,serif" font-size="11.00">UnexpectedValueException</text>
</g>
<!-- \\OpenTok\\Exception\\Exception -->
<g id="node8" class="node"><title>\\OpenTok\\Exception\\Exception</title>
<polygon fill="none" stroke="black" points="254.098,-769 193.902,-769 193.902,-733 254.098,-733 254.098,-769"/>
<text text-anchor="middle" x="224" y="-747.7" font-family="Times,serif" font-size="11.00">Exception</text>
</g>
<!-- \\OpenTok\\Exception\\UnexpectedValueException&#45;&gt;\\OpenTok\\Exception\\Exception -->
<g id="edge2" class="edge"><title>\\OpenTok\\Exception\\UnexpectedValueException&#45;&gt;\\OpenTok\\Exception\\Exception</title>
<path fill="none" stroke="black" stroke-dasharray="1,5" d="M555.76,-869.295C543.786,-866.076 531.486,-862.584 520,-859 426.928,-829.957 319.99,-788.811 263.936,-766.628"/>
<polygon fill="none" stroke="black" points="264.99,-763.281 254.404,-762.844 262.407,-769.787 264.99,-763.281"/>
</g>
<!-- \\UnexpectedValueException -->
<g id="node18" class="node"><title>\\UnexpectedValueException</title>
<ellipse fill="none" stroke="black" cx="224" cy="-180" rx="110.567" ry="18"/>
<text text-anchor="middle" x="224" y="-175.8" font-family="Times,serif" font-size="14.00" fill="gray">\UnexpectedValueException</text>
</g>
<!-- \\OpenTok\\Exception\\UnexpectedValueException&#45;&gt;\\UnexpectedValueException -->
<g id="edge1" class="edge"><title>\\OpenTok\\Exception\\UnexpectedValueException&#45;&gt;\\UnexpectedValueException</title>
<path fill="none" stroke="black" d="M555.77,-878.619C542.654,-874.517 529.93,-868.318 520,-859 445.283,-788.892 486.433,-734.977 448,-640 379.639,-471.065 277.469,-277.181 239.71,-207.064"/>
<polygon fill="none" stroke="black" points="242.651,-205.143 234.82,-198.007 236.491,-208.469 242.651,-205.143"/>
</g>
<!-- \\OpenTok\\Exception\\AuthenticationException -->
<g id="node2" class="node"><title>\\OpenTok\\Exception\\AuthenticationException</title>
<polygon fill="none" stroke="black" points="687.968,-796 562.032,-796 562.032,-760 687.968,-760 687.968,-796"/>
<text text-anchor="middle" x="625" y="-774.7" font-family="Times,serif" font-size="11.00">AuthenticationException</text>
</g>
<!-- \\OpenTok\\Exception\\AuthenticationException&#45;&gt;\\OpenTok\\Exception\\Exception -->
<g id="edge5" class="edge"><title>\\OpenTok\\Exception\\AuthenticationException&#45;&gt;\\OpenTok\\Exception\\Exception</title>
<path fill="none" stroke="black" stroke-dasharray="1,5" d="M561.656,-773.781C478.475,-768.152 333.635,-758.351 264.249,-753.656"/>
<polygon fill="none" stroke="black" points="264.391,-750.158 254.178,-752.974 263.919,-757.142 264.391,-750.158"/>
</g>
<!-- \\OpenTok\\Exception\\OpenTok\\Exception\\DomainException -->
<g id="node20" class="node"><title>\\OpenTok\\Exception\\OpenTok\\Exception\\DomainException</title>
<ellipse fill="none" stroke="black" cx="224" cy="-126" rx="224.016" ry="18"/>
<text text-anchor="middle" x="224" y="-121.8" font-family="Times,serif" font-size="14.00" fill="gray">\OpenTok\Exception\OpenTok\Exception\DomainException</text>
</g>
<!-- \\OpenTok\\Exception\\AuthenticationException&#45;&gt;\\OpenTok\\Exception\\OpenTok\\Exception\\DomainException -->
<g id="edge4" class="edge"><title>\\OpenTok\\Exception\\AuthenticationException&#45;&gt;\\OpenTok\\Exception\\OpenTok\\Exception\\DomainException</title>
<path fill="none" stroke="black" d="M561.834,-774.211C546.113,-770.252 530.681,-763.219 520,-751 343.826,-549.445 637.228,-342.354 448,-153 442.999,-147.996 437.587,-143.565 431.848,-139.652"/>
<polygon fill="none" stroke="black" points="433.554,-136.592 423.214,-134.283 429.858,-142.536 433.554,-136.592"/>
</g>
<!-- \\OpenTok\\Exception\\ArchiveUnexpectedValueException -->
<g id="node3" class="node"><title>\\OpenTok\\Exception\\ArchiveUnexpectedValueException</title>
<polygon fill="none" stroke="black" points="975.599,-890 802.401,-890 802.401,-854 975.599,-854 975.599,-890"/>
<text text-anchor="middle" x="889" y="-868.7" font-family="Times,serif" font-size="11.00">ArchiveUnexpectedValueException</text>
</g>
<!-- \\OpenTok\\Exception\\ArchiveUnexpectedValueException&#45;&gt;\\OpenTok\\Exception\\UnexpectedValueException -->
<g id="edge6" class="edge"><title>\\OpenTok\\Exception\\ArchiveUnexpectedValueException&#45;&gt;\\OpenTok\\Exception\\UnexpectedValueException</title>
<path fill="none" stroke="black" d="M802.211,-876.584C770.702,-878.268 735.215,-880.164 704.39,-881.811"/>
<polygon fill="none" stroke="black" points="703.926,-878.331 694.127,-882.36 704.299,-885.321 703.926,-878.331"/>
</g>
<!-- \\OpenTok\\Exception\\ArchiveException -->
<g id="node9" class="node"><title>\\OpenTok\\Exception\\ArchiveException</title>
<polygon fill="none" stroke="black" points="673.024,-850 576.976,-850 576.976,-814 673.024,-814 673.024,-850"/>
<text text-anchor="middle" x="625" y="-828.7" font-family="Times,serif" font-size="11.00">ArchiveException</text>
</g>
<!-- \\OpenTok\\Exception\\ArchiveUnexpectedValueException&#45;&gt;\\OpenTok\\Exception\\ArchiveException -->
<g id="edge7" class="edge"><title>\\OpenTok\\Exception\\ArchiveUnexpectedValueException&#45;&gt;\\OpenTok\\Exception\\ArchiveException</title>
<path fill="none" stroke="black" stroke-dasharray="1,5" d="M802.211,-858.903C763.228,-852.951 718.156,-846.07 683.355,-840.757"/>
<polygon fill="none" stroke="black" points="683.779,-837.281 673.366,-839.231 682.723,-844.201 683.779,-837.281"/>
</g>
<!-- \\OpenTok\\Exception\\DomainException -->
<g id="node4" class="node"><title>\\OpenTok\\Exception\\DomainException</title>
<polygon fill="none" stroke="black" points="673.035,-742 576.965,-742 576.965,-706 673.035,-706 673.035,-742"/>
<text text-anchor="middle" x="625" y="-720.7" font-family="Times,serif" font-size="11.00">DomainException</text>
</g>
<!-- \\OpenTok\\Exception\\DomainException&#45;&gt;\\OpenTok\\Exception\\Exception -->
<g id="edge9" class="edge"><title>\\OpenTok\\Exception\\DomainException&#45;&gt;\\OpenTok\\Exception\\Exception</title>
<path fill="none" stroke="black" stroke-dasharray="1,5" d="M576.663,-727.203C497.175,-732.582 338.342,-743.33 264.471,-748.329"/>
<polygon fill="none" stroke="black" points="263.949,-744.856 254.208,-749.024 264.422,-751.84 263.949,-744.856"/>
</g>
<!-- \\DomainException -->
<g id="node21" class="node"><title>\\DomainException</title>
<ellipse fill="none" stroke="black" cx="224" cy="-72" rx="76.8157" ry="18"/>
<text text-anchor="middle" x="224" y="-67.8" font-family="Times,serif" font-size="14.00" fill="gray">\DomainException</text>
</g>
<!-- \\OpenTok\\Exception\\DomainException&#45;&gt;\\DomainException -->
<g id="edge8" class="edge"><title>\\OpenTok\\Exception\\DomainException&#45;&gt;\\DomainException</title>
<path fill="none" stroke="black" d="M576.954,-723.15C556.539,-720.241 534.118,-713.152 520,-697 343.826,-495.445 637.228,-288.354 448,-99 408.864,-59.8379 344.553,-55.8081 295.025,-59.9883"/>
<polygon fill="none" stroke="black" points="294.627,-56.5104 285.012,-60.9604 295.303,-63.4776 294.627,-56.5104"/>
</g>
<!-- \\OpenTok\\Exception\\ArchiveAuthenticationException -->
<g id="node5" class="node"><title>\\OpenTok\\Exception\\ArchiveAuthenticationException</title>
<polygon fill="none" stroke="black" points="969.896,-809 808.104,-809 808.104,-773 969.896,-773 969.896,-809"/>
<text text-anchor="middle" x="889" y="-787.7" font-family="Times,serif" font-size="11.00">ArchiveAuthenticationException</text>
</g>
<!-- \\OpenTok\\Exception\\ArchiveAuthenticationException&#45;&gt;\\OpenTok\\Exception\\AuthenticationException -->
<g id="edge10" class="edge"><title>\\OpenTok\\Exception\\ArchiveAuthenticationException&#45;&gt;\\OpenTok\\Exception\\AuthenticationException</title>
<path fill="none" stroke="black" d="M807.968,-787.029C773.055,-785.297 732.42,-783.28 698.416,-781.593"/>
<polygon fill="none" stroke="black" points="698.252,-778.081 688.09,-781.081 697.905,-785.072 698.252,-778.081"/>
</g>
<!-- \\OpenTok\\Exception\\ArchiveAuthenticationException&#45;&gt;\\OpenTok\\Exception\\ArchiveException -->
<g id="edge11" class="edge"><title>\\OpenTok\\Exception\\ArchiveAuthenticationException&#45;&gt;\\OpenTok\\Exception\\ArchiveException</title>
<path fill="none" stroke="black" stroke-dasharray="1,5" d="M807.968,-803.524C767.664,-809.831 719.735,-817.332 683.186,-823.051"/>
<polygon fill="none" stroke="black" points="682.534,-819.61 673.195,-824.615 683.616,-826.526 682.534,-819.61"/>
</g>
<!-- \\OpenTok\\Exception\\InvalidArgumentException -->
<g id="node6" class="node"><title>\\OpenTok\\Exception\\InvalidArgumentException</title>
<polygon fill="none" stroke="black" points="693.162,-688 556.838,-688 556.838,-652 693.162,-652 693.162,-688"/>
<text text-anchor="middle" x="625" y="-666.7" font-family="Times,serif" font-size="11.00">InvalidArgumentException</text>
</g>
<!-- \\OpenTok\\Exception\\InvalidArgumentException&#45;&gt;\\OpenTok\\Exception\\Exception -->
<g id="edge15" class="edge"><title>\\OpenTok\\Exception\\InvalidArgumentException&#45;&gt;\\OpenTok\\Exception\\Exception</title>
<path fill="none" stroke="black" stroke-dasharray="1,5" d="M556.766,-683.649C472.9,-700.674 332.277,-729.222 264.236,-743.035"/>
<polygon fill="none" stroke="black" points="263.453,-739.622 254.349,-745.042 264.845,-746.482 263.453,-739.622"/>
</g>
<!-- \\InvalidArgumentException -->
<g id="node22" class="node"><title>\\InvalidArgumentException</title>
<ellipse fill="none" stroke="black" cx="224" cy="-18" rx="109.337" ry="18"/>
<text text-anchor="middle" x="224" y="-13.8" font-family="Times,serif" font-size="14.00" fill="gray">\InvalidArgumentException</text>
</g>
<!-- \\OpenTok\\Exception\\InvalidArgumentException&#45;&gt;\\InvalidArgumentException -->
<g id="edge14" class="edge"><title>\\OpenTok\\Exception\\InvalidArgumentException&#45;&gt;\\InvalidArgumentException</title>
<path fill="none" stroke="black" d="M620.106,-651.688C598.948,-552.954 496.956,-86.9426 448,-45 413.519,-15.4583 364.275,-7.20321 320.829,-6.98282"/>
<polygon fill="none" stroke="black" points="320.76,-3.48319 310.791,-7.07131 320.822,-10.4829 320.76,-3.48319"/>
</g>
<!-- \\OpenTok\\Exception\\ArchiveDomainException -->
<g id="node7" class="node"><title>\\OpenTok\\Exception\\ArchiveDomainException</title>
<polygon fill="none" stroke="black" points="954.963,-748 823.037,-748 823.037,-712 954.963,-712 954.963,-748"/>
<text text-anchor="middle" x="889" y="-726.7" font-family="Times,serif" font-size="11.00">ArchiveDomainException</text>
</g>
<!-- \\OpenTok\\Exception\\ArchiveDomainException&#45;&gt;\\OpenTok\\Exception\\DomainException -->
<g id="edge16" class="edge"><title>\\OpenTok\\Exception\\ArchiveDomainException&#45;&gt;\\OpenTok\\Exception\\DomainException</title>
<path fill="none" stroke="black" d="M823.236,-728.517C780.349,-727.535 724.61,-726.258 683.331,-725.313"/>
<polygon fill="none" stroke="black" points="683.242,-721.81 673.164,-725.08 683.081,-728.808 683.242,-721.81"/>
</g>
<!-- \\OpenTok\\Exception\\ArchiveDomainException&#45;&gt;\\OpenTok\\Exception\\ArchiveException -->
<g id="edge17" class="edge"><title>\\OpenTok\\Exception\\ArchiveDomainException&#45;&gt;\\OpenTok\\Exception\\ArchiveException</title>
<path fill="none" stroke="black" stroke-dasharray="1,5" d="M838.82,-748.061C826.642,-752.91 813.726,-758.378 802,-764 768.795,-779.92 764.117,-791.142 730,-805 715.185,-811.018 698.63,-816.033 683.162,-820.042"/>
<polygon fill="none" stroke="black" points="682.039,-816.715 673.184,-822.532 683.734,-823.507 682.039,-816.715"/>
</g>
<!-- \\OpenTok\\MediaMode -->
<g id="node10" class="node"><title>\\OpenTok\\MediaMode</title>
<polygon fill="none" stroke="black" points="923.765,-636 854.235,-636 854.235,-600 923.765,-600 923.765,-636"/>
<text text-anchor="start" x="866.398" y="-620.2" font-family="Times,serif" font-size="11.00">«abstract»</text>
<text text-anchor="start" x="862.118" y="-609.2" font-family="Times,serif" font-size="11.00">MediaMode</text>
</g>
<!-- \\OpenTok\\Util\\BasicEnum -->
<g id="node19" class="node"><title>\\OpenTok\\Util\\BasicEnum</title>
<ellipse fill="none" stroke="black" cx="625" cy="-180" rx="104.58" ry="18"/>
<text text-anchor="middle" x="625" y="-175.8" font-family="Times,serif" font-size="14.00" fill="gray">\OpenTok\Util\BasicEnum</text>
</g>
<!-- \\OpenTok\\MediaMode&#45;&gt;\\OpenTok\\Util\\BasicEnum -->
<g id="edge3" class="edge"><title>\\OpenTok\\MediaMode&#45;&gt;\\OpenTok\\Util\\BasicEnum</title>
<path fill="none" stroke="black" d="M854.042,-614.164C836.687,-610.648 816.276,-603.911 802,-591 683.201,-483.566 641.567,-282.288 629.887,-208.257"/>
<polygon fill="none" stroke="black" points="633.334,-207.647 628.375,-198.285 626.413,-208.696 633.334,-207.647"/>
</g>
<!-- \\OpenTok\\Session -->
<g id="node11" class="node"><title>\\OpenTok\\Session</title>
<polygon fill="none" stroke="black" points="916,-582 862,-582 862,-546 916,-546 916,-582"/>
<text text-anchor="middle" x="889" y="-560.7" font-family="Times,serif" font-size="11.00">Session</text>
</g>
<!-- \\OpenTok\\Archive -->
<g id="node12" class="node"><title>\\OpenTok\\Archive</title>
<polygon fill="none" stroke="black" points="916,-528 862,-528 862,-492 916,-492 916,-528"/>
<text text-anchor="middle" x="889" y="-506.7" font-family="Times,serif" font-size="11.00">Archive</text>
</g>
<!-- \\OpenTok\\OutputMode -->
<g id="node13" class="node"><title>\\OpenTok\\OutputMode</title>
<polygon fill="none" stroke="black" points="925.22,-474 852.78,-474 852.78,-438 925.22,-438 925.22,-474"/>
<text text-anchor="start" x="866.398" y="-458.2" font-family="Times,serif" font-size="11.00">«abstract»</text>
<text text-anchor="start" x="860.89" y="-447.2" font-family="Times,serif" font-size="11.00">OutputMode</text>
</g>
<!-- \\OpenTok\\OutputMode&#45;&gt;\\OpenTok\\Util\\BasicEnum -->
<g id="edge12" class="edge"><title>\\OpenTok\\OutputMode&#45;&gt;\\OpenTok\\Util\\BasicEnum</title>
<path fill="none" stroke="black" d="M852.557,-450.303C836.031,-446.351 816.796,-439.785 802,-429 719.612,-368.948 661.577,-258.328 637.881,-207.211"/>
<polygon fill="none" stroke="black" points="641.061,-205.748 633.73,-198.099 634.691,-208.65 641.061,-205.748"/>
</g>
<!-- \\OpenTok\\ArchiveMode -->
<g id="node14" class="node"><title>\\OpenTok\\ArchiveMode</title>
<polygon fill="none" stroke="black" points="927.591,-420 850.409,-420 850.409,-384 927.591,-384 927.591,-420"/>
<text text-anchor="start" x="866.398" y="-404.2" font-family="Times,serif" font-size="11.00">«abstract»</text>
<text text-anchor="start" x="858.455" y="-393.2" font-family="Times,serif" font-size="11.00">ArchiveMode</text>
</g>
<!-- \\OpenTok\\ArchiveMode&#45;&gt;\\OpenTok\\Util\\BasicEnum -->
<g id="edge13" class="edge"><title>\\OpenTok\\ArchiveMode&#45;&gt;\\OpenTok\\Util\\BasicEnum</title>
<path fill="none" stroke="black" d="M850.127,-394.741C834.405,-390.587 816.489,-384.295 802,-375 731.194,-329.577 671.047,-248.367 642.961,-206.529"/>
<polygon fill="none" stroke="black" points="645.744,-204.391 637.305,-197.985 639.907,-208.255 645.744,-204.391"/>
</g>
<!-- \\OpenTok\\ArchiveList -->
<g id="node15" class="node"><title>\\OpenTok\\ArchiveList</title>
<polygon fill="none" stroke="black" points="923.042,-366 854.958,-366 854.958,-330 923.042,-330 923.042,-366"/>
<text text-anchor="middle" x="889" y="-344.7" font-family="Times,serif" font-size="11.00">ArchiveList</text>
</g>
<!-- \\OpenTok\\OpenTok -->
<g id="node16" class="node"><title>\\OpenTok\\OpenTok</title>
<polygon fill="none" stroke="black" points="917.278,-312 860.722,-312 860.722,-276 917.278,-276 917.278,-312"/>
<text text-anchor="middle" x="889" y="-290.7" font-family="Times,serif" font-size="11.00">OpenTok</text>
</g>
<!-- \\OpenTok\\Role -->
<g id="node17" class="node"><title>\\OpenTok\\Role</title>
<polygon fill="none" stroke="black" points="919.703,-258 858.297,-258 858.297,-222 919.703,-222 919.703,-258"/>
<text text-anchor="start" x="866.398" y="-242.2" font-family="Times,serif" font-size="11.00">«abstract»</text>
<text text-anchor="start" x="878.612" y="-231.2" font-family="Times,serif" font-size="11.00">Role</text>
</g>
<!-- \\OpenTok\\Role&#45;&gt;\\OpenTok\\Util\\BasicEnum -->
<g id="edge18" class="edge"><title>\\OpenTok\\Role&#45;&gt;\\OpenTok\\Util\\BasicEnum</title>
<path fill="none" stroke="black" d="M858.2,-233.176C819.644,-224.346 751.183,-208.668 698.554,-196.615"/>
<polygon fill="none" stroke="black" points="699.117,-193.154 688.588,-194.333 697.554,-199.977 699.117,-193.154"/>
</g>
</g>
</svg>
