<?xml version="1.0" encoding="UTF-8" standalone="no"?>
<!DOCTYPE svg PUBLIC "-//W3C//DTD SVG 1.1//EN"
 "http://www.w3.org/Graphics/SVG/1.1/DTD/svg11.dtd">
<!-- Generated by graphviz version 2.36.0 (20140111.2315)
 -->
<!-- Title: G Pages: 1 -->
<svg width="1016pt" height="1001pt"
 viewBox="0.00 0.00 1016.00 1001.00" xmlns="http://www.w3.org/2000/svg" xmlns:xlink="http://www.w3.org/1999/xlink">
<g id="graph0" class="graph" transform="scale(1 1) rotate(0) translate(4 997)">
<title>G</title>
<polygon fill="white" stroke="none" points="-4,4 -4,-997 1012,-997 1012,4 -4,4"/>
<g id="clust1" class="cluster"><title>cluster_Global</title>
<path fill="none" stroke="gray" d="M181,-206C181,-206 988,-206 988,-206 994,-206 1000,-212 1000,-218 1000,-218 1000,-973 1000,-973 1000,-979 994,-985 988,-985 988,-985 181,-985 181,-985 175,-985 169,-979 169,-973 169,-973 169,-218 169,-218 169,-212 175,-206 181,-206"/>
<text text-anchor="middle" x="584.5" y="-972.2" font-family="Times,serif" font-size="11.00" fill="gray">Global</text>
</g>
<g id="clust2" class="cluster"><title>cluster_\OpenTok</title>
<path fill="none" stroke="gray" d="M189,-214C189,-214 980,-214 980,-214 986,-214 992,-220 992,-226 992,-226 992,-946 992,-946 992,-952 986,-958 980,-958 980,-958 189,-958 189,-958 183,-958 177,-952 177,-946 177,-946 177,-226 177,-226 177,-220 183,-214 189,-214"/>
<text text-anchor="middle" x="584.5" y="-945.2" font-family="Times,serif" font-size="11.00" fill="gray">OpenTok</text>
</g>
<g id="clust3" class="cluster"><title>cluster_\OpenTok\Exception</title>
<path fill="none" stroke="gray" d="M197,-644C197,-644 972,-644 972,-644 978,-644 984,-650 984,-656 984,-656 984,-919 984,-919 984,-925 978,-931 972,-931 972,-931 197,-931 197,-931 191,-931 185,-925 185,-919 185,-919 185,-656 185,-656 185,-650 191,-644 197,-644"/>
<text text-anchor="middle" x="584.5" y="-918.2" font-family="Times,serif" font-size="11.00" fill="gray">Exception</text>
</g>
<!-- \\OpenTok\\Exception\\ArchiveAuthenticationException -->
<g id="node1" class="node"><title>\\OpenTok\\Exception\\ArchiveAuthenticationException</title>
<polygon fill="none" stroke="black" points="969.896,-890 808.104,-890 808.104,-854 969.896,-854 969.896,-890"/>
<text text-anchor="middle" x="889" y="-868.7" font-family="Times,serif" font-size="11.00">ArchiveAuthenticationException</text>
</g>
<!-- \\OpenTok\\Exception\\AuthenticationException -->
<g id="node4" class="node"><title>\\OpenTok\\Exception\\AuthenticationException</title>
<polygon fill="none" stroke="black" points="687.968,-904 562.032,-904 562.032,-868 687.968,-868 687.968,-904"/>
<text text-anchor="middle" x="625" y="-882.7" font-family="Times,serif" font-size="11.00">AuthenticationException</text>
</g>
<!-- \\OpenTok\\Exception\\ArchiveAuthenticationException&#45;&gt;\\OpenTok\\Exception\\AuthenticationException -->
<g id="edge2" class="edge"><title>\\OpenTok\\Exception\\ArchiveAuthenticationException&#45;&gt;\\OpenTok\\Exception\\AuthenticationException</title>
<path fill="none" stroke="black" d="M807.968,-876.277C773.055,-878.142 732.42,-880.313 698.416,-882.13"/>
<polygon fill="none" stroke="black" points="697.889,-878.654 688.09,-882.682 698.263,-885.644 697.889,-878.654"/>
</g>
<!-- \\OpenTok\\Exception\\ArchiveException -->
<g id="node8" class="node"><title>\\OpenTok\\Exception\\ArchiveException</title>
<polygon fill="none" stroke="black" points="673.024,-850 576.976,-850 576.976,-814 673.024,-814 673.024,-850"/>
<text text-anchor="middle" x="625" y="-828.7" font-family="Times,serif" font-size="11.00">ArchiveException</text>
</g>
<!-- \\OpenTok\\Exception\\ArchiveAuthenticationException&#45;&gt;\\OpenTok\\Exception\\ArchiveException -->
<g id="edge3" class="edge"><title>\\OpenTok\\Exception\\ArchiveAuthenticationException&#45;&gt;\\OpenTok\\Exception\\ArchiveException</title>
<path fill="none" stroke="black" stroke-dasharray="1,5" d="M807.968,-859.781C767.664,-853.628 719.735,-846.311 683.186,-840.731"/>
<polygon fill="none" stroke="black" points="683.609,-837.255 673.195,-839.205 682.552,-844.175 683.609,-837.255"/>
</g>
<!-- \\OpenTok\\Exception\\ArchiveDomainException -->
<g id="node2" class="node"><title>\\OpenTok\\Exception\\ArchiveDomainException</title>
<polygon fill="none" stroke="black" points="954.963,-809 823.037,-809 823.037,-773 954.963,-773 954.963,-809"/>
<text text-anchor="middle" x="889" y="-787.7" font-family="Times,serif" font-size="11.00">ArchiveDomainException</text>
</g>
<!-- \\OpenTok\\Exception\\DomainException -->
<g id="node5" class="node"><title>\\OpenTok\\Exception\\DomainException</title>
<polygon fill="none" stroke="black" points="673.035,-796 576.965,-796 576.965,-760 673.035,-760 673.035,-796"/>
<text text-anchor="middle" x="625" y="-774.7" font-family="Times,serif" font-size="11.00">DomainException</text>
</g>
<!-- \\OpenTok\\Exception\\ArchiveDomainException&#45;&gt;\\OpenTok\\Exception\\DomainException -->
<g id="edge4" class="edge"><title>\\OpenTok\\Exception\\ArchiveDomainException&#45;&gt;\\OpenTok\\Exception\\DomainException</title>
<path fill="none" stroke="black" d="M823.236,-787.787C780.349,-785.659 724.61,-782.893 683.331,-780.845"/>
<polygon fill="none" stroke="black" points="683.325,-777.34 673.164,-780.34 682.978,-784.332 683.325,-777.34"/>
</g>
<!-- \\OpenTok\\Exception\\ArchiveDomainException&#45;&gt;\\OpenTok\\Exception\\ArchiveException -->
<g id="edge5" class="edge"><title>\\OpenTok\\Exception\\ArchiveDomainException&#45;&gt;\\OpenTok\\Exception\\ArchiveException</title>
<path fill="none" stroke="black" stroke-dasharray="1,5" d="M823.236,-801.135C780.258,-807.86 724.374,-816.606 683.069,-823.069"/>
<polygon fill="none" stroke="black" points="682.503,-819.615 673.164,-824.619 683.585,-826.531 682.503,-819.615"/>
</g>
<!-- \\OpenTok\\Exception\\ArchiveUnexpectedValueException -->
<g id="node3" class="node"><title>\\OpenTok\\Exception\\ArchiveUnexpectedValueException</title>
<polygon fill="none" stroke="black" points="975.599,-729 802.401,-729 802.401,-693 975.599,-693 975.599,-729"/>
<text text-anchor="middle" x="889" y="-707.7" font-family="Times,serif" font-size="11.00">ArchiveUnexpectedValueException</text>
</g>
<!-- \\OpenTok\\Exception\\UnexpectedValueException -->
<g id="node7" class="node"><title>\\OpenTok\\Exception\\UnexpectedValueException</title>
<polygon fill="none" stroke="black" points="694.171,-688 555.829,-688 555.829,-652 694.171,-652 694.171,-688"/>
<text text-anchor="middle" x="625" y="-666.7" font-family="Times,serif" font-size="11.00">UnexpectedValueException</text>
</g>
<!-- \\OpenTok\\Exception\\ArchiveUnexpectedValueException&#45;&gt;\\OpenTok\\Exception\\UnexpectedValueException -->
<g id="edge6" class="edge"><title>\\OpenTok\\Exception\\ArchiveUnexpectedValueException&#45;&gt;\\OpenTok\\Exception\\UnexpectedValueException</title>
<path fill="none" stroke="black" d="M802.211,-697.575C770.702,-692.644 735.215,-687.091 704.39,-682.267"/>
<polygon fill="none" stroke="black" points="704.548,-678.749 694.127,-680.661 703.465,-685.665 704.548,-678.749"/>
</g>
<!-- \\OpenTok\\Exception\\ArchiveUnexpectedValueException&#45;&gt;\\OpenTok\\Exception\\ArchiveException -->
<g id="edge7" class="edge"><title>\\OpenTok\\Exception\\ArchiveUnexpectedValueException&#45;&gt;\\OpenTok\\Exception\\ArchiveException</title>
<path fill="none" stroke="black" stroke-dasharray="1,5" d="M858.694,-729.045C816.793,-754.751 743.329,-799.438 730,-805 715.243,-811.159 698.707,-816.22 683.239,-820.229"/>
<polygon fill="none" stroke="black" points="682.117,-816.901 673.258,-822.712 683.807,-823.694 682.117,-816.901"/>
</g>
<!-- \\OpenTok\\Exception\\Exception -->
<g id="node9" class="node"><title>\\OpenTok\\Exception\\Exception</title>
<polygon fill="none" stroke="black" points="254.098,-769 193.902,-769 193.902,-733 254.098,-733 254.098,-769"/>
<text text-anchor="middle" x="224" y="-747.7" font-family="Times,serif" font-size="11.00">Exception</text>
</g>
<!-- \\OpenTok\\Exception\\AuthenticationException&#45;&gt;\\OpenTok\\Exception\\Exception -->
<g id="edge9" class="edge"><title>\\OpenTok\\Exception\\AuthenticationException&#45;&gt;\\OpenTok\\Exception\\Exception</title>
<path fill="none" stroke="black" stroke-dasharray="1,5" d="M561.853,-870.917C548.005,-867.265 533.444,-863.195 520,-859 426.928,-829.957 319.99,-788.811 263.936,-766.628"/>
<polygon fill="none" stroke="black" points="264.99,-763.281 254.404,-762.844 262.407,-769.787 264.99,-763.281"/>
</g>
<!-- \\OpenTok\\Exception\\OpenTok\\Exception\\DomainException -->
<g id="node19" class="node"><title>\\OpenTok\\Exception\\OpenTok\\Exception\\DomainException</title>
<ellipse fill="none" stroke="black" cx="224" cy="-180" rx="224.016" ry="18"/>
<text text-anchor="middle" x="224" y="-175.8" font-family="Times,serif" font-size="14.00" fill="gray">\OpenTok\Exception\OpenTok\Exception\DomainException</text>
</g>
<!-- \\OpenTok\\Exception\\AuthenticationException&#45;&gt;\\OpenTok\\Exception\\OpenTok\\Exception\\DomainException -->
<g id="edge8" class="edge"><title>\\OpenTok\\Exception\\AuthenticationException&#45;&gt;\\OpenTok\\Exception\\OpenTok\\Exception\\DomainException</title>
<path fill="none" stroke="black" d="M561.989,-880.405C546.732,-876.393 531.495,-869.786 520,-859 445.283,-788.892 486.433,-734.977 448,-640 379.639,-471.065 277.469,-277.181 239.71,-207.064"/>
<polygon fill="none" stroke="black" points="242.651,-205.143 234.82,-198.007 236.491,-208.469 242.651,-205.143"/>
</g>
<!-- \\OpenTok\\Exception\\DomainException&#45;&gt;\\OpenTok\\Exception\\Exception -->
<g id="edge11" class="edge"><title>\\OpenTok\\Exception\\DomainException&#45;&gt;\\OpenTok\\Exception\\Exception</title>
<path fill="none" stroke="black" stroke-dasharray="1,5" d="M576.663,-774.797C497.175,-769.418 338.342,-758.67 264.471,-753.671"/>
<polygon fill="none" stroke="black" points="264.422,-750.16 254.208,-752.976 263.949,-757.144 264.422,-750.16"/>
</g>
<!-- \\DomainException -->
<g id="node20" class="node"><title>\\DomainException</title>
<ellipse fill="none" stroke="black" cx="224" cy="-126" rx="76.8157" ry="18"/>
<text text-anchor="middle" x="224" y="-121.8" font-family="Times,serif" font-size="14.00" fill="gray">\DomainException</text>
</g>
<!-- \\OpenTok\\Exception\\DomainException&#45;&gt;\\DomainException -->
<g id="edge10" class="edge"><title>\\OpenTok\\Exception\\DomainException&#45;&gt;\\DomainException</title>
<path fill="none" stroke="black" d="M576.954,-777.15C556.539,-774.241 534.118,-767.152 520,-751 343.826,-549.445 637.228,-342.354 448,-153 408.864,-113.838 344.553,-109.808 295.025,-113.988"/>
<polygon fill="none" stroke="black" points="294.627,-110.51 285.012,-114.96 295.303,-117.478 294.627,-110.51"/>
</g>
<!-- \\OpenTok\\Exception\\InvalidArgumentException -->
<g id="node6" class="node"><title>\\OpenTok\\Exception\\InvalidArgumentException</title>
<polygon fill="none" stroke="black" points="693.162,-742 556.838,-742 556.838,-706 693.162,-706 693.162,-742"/>
<text text-anchor="middle" x="625" y="-720.7" font-family="Times,serif" font-size="11.00">InvalidArgumentException</text>
</g>
<!-- \\OpenTok\\Exception\\InvalidArgumentException&#45;&gt;\\OpenTok\\Exception\\Exception -->
<g id="edge13" class="edge"><title>\\OpenTok\\Exception\\InvalidArgumentException&#45;&gt;\\OpenTok\\Exception\\Exception</title>
<path fill="none" stroke="black" stroke-dasharray="1,5" d="M556.766,-728.55C473.073,-734.213 332.855,-743.702 264.656,-748.316"/>
<polygon fill="none" stroke="black" points="264.09,-744.847 254.349,-749.014 264.562,-751.831 264.09,-744.847"/>
</g>
<!-- \\InvalidArgumentException -->
<g id="node21" class="node"><title>\\InvalidArgumentException</title>
<ellipse fill="none" stroke="black" cx="224" cy="-72" rx="109.337" ry="18"/>
<text text-anchor="middle" x="224" y="-67.8" font-family="Times,serif" font-size="14.00" fill="gray">\InvalidArgumentException</text>
</g>
<!-- \\OpenTok\\Exception\\InvalidArgumentException&#45;&gt;\\InvalidArgumentException -->
<g id="edge12" class="edge"><title>\\OpenTok\\Exception\\InvalidArgumentException&#45;&gt;\\InvalidArgumentException</title>
<path fill="none" stroke="black" d="M556.7,-718.801C542.799,-714.654 529.514,-707.885 520,-697 343.826,-495.445 637.228,-288.354 448,-99 413.329,-64.306 358.9,-57.185 312.495,-58.9181"/>
<polygon fill="none" stroke="black" points="312.228,-55.4271 302.421,-59.4352 312.587,-62.4179 312.228,-55.4271"/>
</g>
<!-- \\OpenTok\\Exception\\UnexpectedValueException&#45;&gt;\\OpenTok\\Exception\\Exception -->
<g id="edge15" class="edge"><title>\\OpenTok\\Exception\\UnexpectedValueException&#45;&gt;\\OpenTok\\Exception\\Exception</title>
<path fill="none" stroke="black" stroke-dasharray="1,5" d="M555.863,-683.832C471.815,-700.895 331.77,-729.325 264.044,-743.074"/>
<polygon fill="none" stroke="black" points="263.307,-739.652 254.204,-745.071 264.7,-746.512 263.307,-739.652"/>
</g>
<!-- \\UnexpectedValueException -->
<g id="node22" class="node"><title>\\UnexpectedValueException</title>
<ellipse fill="none" stroke="black" cx="224" cy="-18" rx="110.567" ry="18"/>
<text text-anchor="middle" x="224" y="-13.8" font-family="Times,serif" font-size="14.00" fill="gray">\UnexpectedValueException</text>
</g>
<!-- \\OpenTok\\Exception\\UnexpectedValueException&#45;&gt;\\UnexpectedValueException -->
<g id="edge14" class="edge"><title>\\OpenTok\\Exception\\UnexpectedValueException&#45;&gt;\\UnexpectedValueException</title>
<path fill="none" stroke="black" d="M620.106,-651.688C598.948,-552.954 496.956,-86.9426 448,-45 413.934,-15.8141 365.459,-7.40516 322.401,-6.99431"/>
<polygon fill="none" stroke="black" points="322.143,-3.4954 312.16,-7.04312 322.177,-10.4953 322.143,-3.4954"/>
</g>
<!-- \\OpenTok\\Archive -->
<g id="node10" class="node"><title>\\OpenTok\\Archive</title>
<polygon fill="none" stroke="black" points="916,-636 862,-636 862,-600 916,-600 916,-636"/>
<text text-anchor="middle" x="889" y="-614.7" font-family="Times,serif" font-size="11.00">Archive</text>
</g>
<!-- \\OpenTok\\ArchiveList -->
<g id="node11" class="node"><title>\\OpenTok\\ArchiveList</title>
<polygon fill="none" stroke="black" points="923.042,-582 854.958,-582 854.958,-546 923.042,-546 923.042,-582"/>
<text text-anchor="middle" x="889" y="-560.7" font-family="Times,serif" font-size="11.00">ArchiveList</text>
</g>
<!-- \\OpenTok\\ArchiveMode -->
<g id="node12" class="node"><title>\\OpenTok\\ArchiveMode</title>
<polygon fill="none" stroke="black" points="927.591,-528 850.409,-528 850.409,-492 927.591,-492 927.591,-528"/>
<text text-anchor="start" x="866.398" y="-512.2" font-family="Times,serif" font-size="11.00">«abstract»</text>
<text text-anchor="start" x="858.455" y="-501.2" font-family="Times,serif" font-size="11.00">ArchiveMode</text>
</g>
<!-- \\OpenTok\\Util\\BasicEnum -->
<g id="node18" class="node"><title>\\OpenTok\\Util\\BasicEnum</title>
<ellipse fill="none" stroke="black" cx="625" cy="-180" rx="104.58" ry="18"/>
<text text-anchor="middle" x="625" y="-175.8" font-family="Times,serif" font-size="14.00" fill="gray">\OpenTok\Util\BasicEnum</text>
</g>
<!-- \\OpenTok\\ArchiveMode&#45;&gt;\\OpenTok\\Util\\BasicEnum -->
<g id="edge1" class="edge"><title>\\OpenTok\\ArchiveMode&#45;&gt;\\OpenTok\\Util\\BasicEnum</title>
<path fill="none" stroke="black" d="M850.405,-504.474C834.187,-500.597 815.812,-494.042 802,-483 707.866,-407.747 654.027,-267.514 634.49,-207.935"/>
<polygon fill="none" stroke="black" points="637.725,-206.562 631.34,-198.107 631.059,-208.698 637.725,-206.562"/>
</g>
<!-- \\OpenTok\\MediaMode -->
<g id="node13" class="node"><title>\\OpenTok\\MediaMode</title>
<polygon fill="none" stroke="black" points="923.765,-474 854.235,-474 854.235,-438 923.765,-438 923.765,-474"/>
<text text-anchor="start" x="866.398" y="-458.2" font-family="Times,serif" font-size="11.00">«abstract»</text>
<text text-anchor="start" x="862.118" y="-447.2" font-family="Times,serif" font-size="11.00">MediaMode</text>
</g>
<!-- \\OpenTok\\MediaMode&#45;&gt;\\OpenTok\\Util\\BasicEnum -->
<g id="edge16" class="edge"><title>\\OpenTok\\MediaMode&#45;&gt;\\OpenTok\\Util\\BasicEnum</title>
<path fill="none" stroke="black" d="M853.823,-450.601C837.02,-446.685 817.175,-440.061 802,-429 719.612,-368.948 661.577,-258.328 637.881,-207.211"/>
<polygon fill="none" stroke="black" points="641.061,-205.748 633.73,-198.099 634.691,-208.65 641.061,-205.748"/>
</g>
<!-- \\OpenTok\\OpenTok -->
<g id="node14" class="node"><title>\\OpenTok\\OpenTok</title>
<polygon fill="none" stroke="black" points="917.278,-420 860.722,-420 860.722,-384 917.278,-384 917.278,-420"/>
<text text-anchor="middle" x="889" y="-398.7" font-family="Times,serif" font-size="11.00">OpenTok</text>
</g>
<!-- \\OpenTok\\OutputMode -->
<g id="node15" class="node"><title>\\OpenTok\\OutputMode</title>
<polygon fill="none" stroke="black" points="925.22,-366 852.78,-366 852.78,-330 925.22,-330 925.22,-366"/>
<text text-anchor="start" x="866.398" y="-350.2" font-family="Times,serif" font-size="11.00">«abstract»</text>
<text text-anchor="start" x="860.89" y="-339.2" font-family="Times,serif" font-size="11.00">OutputMode</text>
</g>
<!-- \\OpenTok\\OutputMode&#45;&gt;\\OpenTok\\Util\\BasicEnum -->
<g id="edge17" class="edge"><title>\\OpenTok\\OutputMode&#45;&gt;\\OpenTok\\Util\\BasicEnum</title>
<path fill="none" stroke="black" d="M852.504,-340.041C836.518,-335.665 817.742,-329.393 802,-321 742.509,-289.282 683.42,-236.439 651.109,-205.241"/>
<polygon fill="none" stroke="black" points="653.47,-202.654 643.867,-198.177 648.581,-207.665 653.47,-202.654"/>
</g>
<!-- \\OpenTok\\Role -->
<g id="node16" class="node"><title>\\OpenTok\\Role</title>
<polygon fill="none" stroke="black" points="919.703,-312 858.297,-312 858.297,-276 919.703,-276 919.703,-312"/>
<text text-anchor="start" x="866.398" y="-296.2" font-family="Times,serif" font-size="11.00">«abstract»</text>
<text text-anchor="start" x="878.612" y="-285.2" font-family="Times,serif" font-size="11.00">Role</text>
</g>
<!-- \\OpenTok\\Role&#45;&gt;\\OpenTok\\Util\\BasicEnum -->
<g id="edge18" class="edge"><title>\\OpenTok\\Role&#45;&gt;\\OpenTok\\Util\\BasicEnum</title>
<path fill="none" stroke="black" d="M858.149,-285.865C841.418,-280.999 820.299,-274.344 802,-267 754.088,-247.772 701.26,-220.841 666.106,-202.054"/>
<polygon fill="none" stroke="black" points="667.586,-198.876 657.121,-197.224 664.272,-205.042 667.586,-198.876"/>
</g>
<!-- \\OpenTok\\Session -->
<g id="node17" class="node"><title>\\OpenTok\\Session</title>
<polygon fill="none" stroke="black" points="916,-258 862,-258 862,-222 916,-222 916,-258"/>
<text text-anchor="middle" x="889" y="-236.7" font-family="Times,serif" font-size="11.00">Session</text>
</g>
</g>
</svg>
